<svg width="24" height="24" viewBox="0 0 24 24" fill="none" xmlns="http://www.w3.org/2000/svg">
<path d="M7.00107 10.7477C6.30976 10.7477 5.75125 11.3062 5.75125 11.9975C5.75125 12.6888 6.30976 13.2473 7.00107 13.2473C7.69238 13.2473 8.2509 12.6888 8.2509 11.9975C8.2509 11.3062 7.68848 10.7477 7.00107 10.7477ZM18.3511 4.26809C16.0311 2.36211 12.9885 1.6083 9.99285 2.19416C6.09886 2.95187 2.96648 6.06862 2.20096 9.9548C1.54871 13.2434 2.51732 16.5281 4.84903 18.9614C6.69643 20.8908 9.13359 22 11.4067 22C11.7504 22 12.0902 21.9766 12.4261 21.9219C13.3713 21.7774 14.168 21.1915 14.6172 20.3166C15.0976 19.3793 15.0976 18.2583 14.625 17.3249C14.3868 16.8562 14.4102 16.3016 14.6953 15.8407C14.9687 15.3798 15.4257 15.1221 15.9451 15.1221H18.7651C20.5773 15.1221 21.999 13.7277 21.999 11.9467C21.9912 8.96275 20.6593 6.16236 18.3511 4.26809ZM18.7651 13.2473H15.9451C14.7773 13.2473 13.7111 13.8488 13.094 14.8604C12.4691 15.8798 12.4183 17.1179 12.9534 18.1763C13.1526 18.5708 13.1526 19.0629 12.9456 19.4613C12.844 19.6566 12.6058 19.9964 12.141 20.0706C10.2155 20.3713 7.88767 19.4222 6.20431 17.6647C4.29832 15.6767 3.50937 13.0013 4.04055 10.3219C4.66156 7.17394 7.19636 4.64694 10.3522 4.03375C12.7971 3.55335 15.2773 4.17045 17.1598 5.71711C19.0385 7.25986 20.1164 9.52908 20.1243 11.9506C20.1243 12.6771 19.5267 13.2473 18.7651 13.2473ZM8.2509 6.99818C7.55959 6.99818 7.00107 7.5567 7.00107 8.24801C7.00107 8.93932 7.55959 9.49783 8.2509 9.49783C8.94221 9.49783 9.50073 8.93932 9.50073 8.24801C9.50073 7.5567 8.9383 6.99818 8.2509 6.99818ZM12.0004 5.74445C11.3091 5.74445 10.7506 6.30296 10.7506 6.99427C10.7506 7.68558 11.3091 8.2441 12.0004 8.2441C12.6917 8.2441 13.2502 7.68558 13.2502 6.99427C13.2502 6.30687 12.6917 5.74445 12.0004 5.74445ZM15.7499 6.99818C15.0585 6.99818 14.5 7.5567 14.5 8.24801C14.5 8.93932 15.0585 9.49783 15.7499 9.49783C16.4412 9.49783 16.9997 8.93932 16.9997 8.24801C16.9997 7.5567 16.4412 6.99818 15.7499 6.99818Z" fill="#262626"/>
</svg>
