<svg width="24" height="24" viewBox="0 0 24 24" fill="none" xmlns="http://www.w3.org/2000/svg">
<path d="M10.1545 20.8782L8.80729 20.4859C8.66146 20.4442 8.57465 20.288 8.61632 20.1421L13.5052 3.31226C13.5469 3.16643 13.7031 3.07963 13.849 3.12129L15.1962 3.51365C15.342 3.55532 15.4288 3.71157 15.3872 3.8574L10.4983 20.6873C10.4566 20.8366 10.3038 20.9199 10.1545 20.8782ZM7.26563 16.6734L8.21007 15.6664C8.31771 15.5518 8.30729 15.3713 8.19271 15.2671L4.50868 11.9998L8.19271 8.7324C8.31076 8.62824 8.31771 8.44768 8.21007 8.3331L7.26563 7.32615C7.16146 7.21504 6.98438 7.2081 6.87326 7.31226L2.08854 11.7984C1.97049 11.9095 1.97049 12.0935 2.08854 12.2046L6.87326 16.6873C6.98438 16.7914 7.15799 16.7845 7.26563 16.6734ZM17.1302 16.6873L21.9115 12.2046C22.0295 12.0935 22.0295 11.9095 21.9115 11.7984L17.1302 7.31226C17.0191 7.2081 16.842 7.21157 16.7378 7.32615L15.7934 8.3331C15.6858 8.44768 15.6962 8.62824 15.8108 8.7324L19.4948 11.9998L15.8108 15.2671C15.6927 15.3713 15.6858 15.5518 15.7934 15.6664L16.7378 16.6734C16.8455 16.7845 17.0191 16.7914 17.1302 16.6873Z" fill="#262626"/>
</svg>
