<svg width="24" height="24" viewBox="0 0 24 24" fill="none" xmlns="http://www.w3.org/2000/svg">
<path d="M20.3305 10.8889H18.6672V9.22215C18.6672 8.30198 17.9207 7.55542 17.0005 7.55542H11.4448L9.22246 5.33313H3.66672C2.74655 5.33313 2 6.07968 2 6.99985V17.0002C2 17.9203 2.74655 18.6669 3.66672 18.6669H17.5561C18.129 18.6669 18.6637 18.3717 18.9693 17.8822L21.7437 13.4376C22.4382 12.3299 21.6395 10.8889 20.3305 10.8889ZM3.66672 7.20819C3.66672 7.0936 3.76047 6.99985 3.87506 6.99985H8.53146L10.7538 9.22215H16.7921C16.9067 9.22215 17.0005 9.3159 17.0005 9.43049V10.8889H7.27795C6.6946 10.8889 6.15291 11.1944 5.85082 11.6944L3.66672 15.3126V7.20819ZM17.5561 17.0002H4.50008L7.18072 12.5556H20.3339L17.5561 17.0002Z" fill="#262626"/>
</svg>
