<svg width="24" height="24" viewBox="0 0 24 24" fill="none" xmlns="http://www.w3.org/2000/svg">
<path d="M19.0027 11C20.3841 11 21.503 9.88103 21.503 8.49957C21.503 7.1181 20.3841 5.99918 19.0027 5.99918C17.6212 5.99918 16.5023 7.1181 16.5023 8.49957C16.5023 9.88103 17.6212 11 19.0027 11ZM19.0027 7.49941C19.5527 7.49941 20.0028 7.94948 20.0028 8.49957C20.0028 9.04965 19.5527 9.49973 19.0027 9.49973C18.4526 9.49973 18.0025 9.04965 18.0025 8.49957C18.0025 7.94948 18.4526 7.49941 19.0027 7.49941ZM5.00047 11C6.38193 11 7.50086 9.88103 7.50086 8.49957C7.50086 7.1181 6.38193 5.99918 5.00047 5.99918C3.619 5.99918 2.50008 7.1181 2.50008 8.49957C2.50008 9.88103 3.619 11 5.00047 11ZM5.00047 7.49941C5.55055 7.49941 6.00062 7.94948 6.00062 8.49957C6.00062 9.04965 5.55055 9.49973 5.00047 9.49973C4.45038 9.49973 4.00031 9.04965 4.00031 8.49957C4.00031 7.94948 4.45038 7.49941 5.00047 7.49941ZM17.3899 14.0911C16.5304 12.8159 14.8676 12.3408 13.3955 12.7877C12.9517 12.9221 12.486 12.9971 11.9984 12.9971C11.5109 12.9971 11.0452 12.9221 10.6013 12.7877C9.12924 12.3408 7.46648 12.8127 6.60697 14.0911C6.21941 14.6662 5.99437 15.3569 5.99437 16.1008V17.501C5.99437 18.3292 6.66635 19.0012 7.49461 19.0012H16.496C17.3243 19.0012 17.9962 18.3292 17.9962 17.501V16.1008C18.0025 15.3569 17.7775 14.6662 17.3899 14.0911ZM16.5023 17.501H7.50086V16.1008C7.50086 14.9631 8.4135 14.0317 9.54493 14.0004C10.3419 14.3317 11.1671 14.5005 12.0016 14.5005C12.8361 14.5005 13.6612 14.3317 14.4582 14.0004C15.5896 14.0317 16.5023 14.96 16.5023 16.1008V17.501ZM19.3777 12.0001H18.6276C18.0869 12.0001 17.5837 12.1658 17.1649 12.4471C17.5837 12.7627 17.9525 13.1409 18.24 13.5785C18.3619 13.5347 18.4901 13.5003 18.6245 13.5003H19.3746C19.9934 13.5003 20.4998 14.0067 20.4998 14.6255C20.4998 15.0381 20.8373 15.3756 21.2499 15.3756C21.6624 15.3756 22 15.0381 22 14.6255C22.0031 13.1784 20.8248 12.0001 19.3777 12.0001ZM12.0016 12.0001C13.9362 12.0001 15.5021 10.4342 15.5021 8.49957C15.5021 6.56489 13.9362 4.99902 12.0016 4.99902C10.0669 4.99902 8.50101 6.56489 8.50101 8.49957C8.50101 10.4342 10.0669 12.0001 12.0016 12.0001ZM12.0016 6.49926C13.1049 6.49926 14.0019 7.39627 14.0019 8.49957C14.0019 9.60287 13.1049 10.4999 12.0016 10.4999C10.8983 10.4999 10.0012 9.60287 10.0012 8.49957C10.0012 7.39627 10.8983 6.49926 12.0016 6.49926ZM6.83825 12.4471C6.41944 12.1658 5.91624 12.0001 5.37553 12.0001H4.62541C3.17831 12.0001 2 13.1784 2 14.6255C2 15.0381 2.33755 15.3756 2.75012 15.3756C3.16268 15.3756 3.50023 15.0381 3.50023 14.6255C3.50023 14.0067 4.00656 13.5003 4.62541 13.5003H5.37553C5.51305 13.5003 5.64119 13.5347 5.75996 13.5785C6.05063 13.1409 6.41944 12.7627 6.83825 12.4471Z" fill="#262626"/>
</svg>
