<svg width="424" height="242" viewBox="0 0 424 242" fill="none" xmlns="http://www.w3.org/2000/svg">
<mask id="path-1-outside-1_11_550" maskUnits="userSpaceOnUse" x="0" y="0" width="204" height="242" fill="black">
<rect fill="white" width="204" height="242"/>
<path d="M12 22C12 16.4772 16.4772 12 22 12H182C187.523 12 192 16.4772 192 22V182C192 187.523 187.523 192 182 192H22C16.4772 192 12 187.523 12 182V22Z"/>
</mask>
<path d="M12 22C12 16.4772 16.4772 12 22 12H182C187.523 12 192 16.4772 192 22V182C192 187.523 187.523 192 182 192H22C16.4772 192 12 187.523 12 182V22Z" fill="white"/>
<path d="M0 22C0 9.84974 9.84974 0 22 0H182C194.15 0 204 9.84974 204 22L180 24H24L0 22ZM204 220C204 232.15 194.15 242 182 242H22C9.84974 242 0 232.15 0 220L24 142H180L204 220ZM22 242C9.84974 242 0 232.15 0 220V22C0 9.84974 9.84974 0 22 0L24 24V142L22 242ZM182 0C194.15 0 204 9.84974 204 22V220C204 232.15 194.15 242 182 242L180 142V24L182 0Z" fill="black" mask="url(#path-1-outside-1_11_550)"/>
<path d="M102.884 142.22C91.652 142.22 82.196 140.516 74.516 137.108C66.836 133.7 61.868 127.844 59.612 119.54L80.78 111.764C81.884 116.66 84.38 120.332 88.268 122.78C92.156 125.228 97.148 126.452 103.244 126.452C108.284 126.452 112.196 125.684 114.98 124.148C117.764 122.564 119.156 120.38 119.156 117.596C119.156 113.804 116.66 111.38 111.668 110.324C106.676 109.268 100.292 108.116 92.516 106.868C82.772 105.38 74.948 102.716 69.044 98.876C63.188 94.988 60.26 88.724 60.26 80.084C60.26 71.636 63.884 65.42 71.132 61.436C78.38 57.452 87.884 55.46 99.644 55.46C111.116 55.46 120.5 57.14 127.796 60.5C135.092 63.812 139.772 69.524 141.836 77.636L120.596 85.268C119.492 80.9 117.068 77.444 113.324 74.9C109.58 72.356 104.924 71.084 99.356 71.084C94.124 71.084 90.26 71.876 87.764 73.46C85.316 75.044 84.092 77.228 84.092 80.012C84.092 83.66 86.468 86.036 91.22 87.14C95.972 88.196 102.068 89.3 109.508 90.452C119.06 91.844 127.028 94.268 133.412 97.724C139.844 101.132 143.06 107.156 143.06 115.796C143.06 125.252 139.58 132.02 132.62 136.1C125.66 140.18 115.748 142.22 102.884 142.22Z" fill="#1E1E1E"/>
<mask id="path-4-outside-2_11_550" maskUnits="userSpaceOnUse" x="220" y="0" width="204" height="242" fill="black">
<rect fill="white" x="220" width="204" height="242"/>
<path d="M232 22C232 16.4772 236.477 12 242 12H402C407.523 12 412 16.4772 412 22V182C412 187.523 407.523 192 402 192H242C236.477 192 232 187.523 232 182V22Z"/>
</mask>
<path d="M232 22C232 16.4772 236.477 12 242 12H402C407.523 12 412 16.4772 412 22V182C412 187.523 407.523 192 402 192H242C236.477 192 232 187.523 232 182V22Z" fill="white"/>
<path d="M220 22C220 9.84974 229.85 0 242 0H402C414.15 0 424 9.84974 424 22L400 24H244L220 22ZM424 220C424 232.15 414.15 242 402 242H242C229.85 242 220 232.15 220 220L244 142H400L424 220ZM242 242C229.85 242 220 232.15 220 220V22C220 9.84974 229.85 0 242 0L244 24V142L242 242ZM402 0C414.15 0 424 9.84974 424 22V220C424 232.15 414.15 242 402 242L400 142V24L402 0Z" fill="black" mask="url(#path-4-outside-2_11_550)"/>
<path d="M311.728 142.436C308.368 142.436 305.056 142.244 301.792 141.86C298.576 141.476 295.552 140.756 292.72 139.7C289.888 138.596 287.392 137.06 285.232 135.092C283.072 133.124 281.368 130.58 280.12 127.46C278.92 124.34 278.32 120.524 278.32 116.012C278.32 111.644 278.92 107.972 280.12 104.996C281.368 101.972 283.048 99.5 285.16 97.58C287.272 95.66 289.72 94.172 292.504 93.116C295.288 92.06 298.264 91.34 301.432 90.956C304.6 90.524 307.816 90.308 311.08 90.308H338.008V86.996C338.008 83.108 337.24 80.036 335.704 77.78C334.216 75.524 332.152 73.94 329.512 73.028C326.92 72.068 323.992 71.588 320.728 71.588C317.752 71.588 315.04 72.044 312.592 72.956C310.144 73.868 308.08 75.356 306.4 77.42C304.768 79.484 303.616 82.244 302.944 85.7L279.256 79.076C280.12 74.804 281.704 71.18 284.008 68.204C286.36 65.18 289.336 62.732 292.936 60.86C296.584 58.94 300.736 57.548 305.392 56.684C310.096 55.772 315.184 55.316 320.656 55.316C329.248 55.316 336.664 56.348 342.904 58.412C349.144 60.476 353.944 63.908 357.304 68.708C360.664 73.508 362.344 80.036 362.344 88.292V141.5H342.184L340.096 131.708C339.52 133.004 338.44 134.3 336.856 135.596C335.272 136.844 333.232 137.996 330.736 139.052C328.288 140.06 325.456 140.876 322.24 141.5C319.072 142.124 315.568 142.436 311.728 142.436ZM317.2 127.244C319.552 127.244 321.88 127.028 324.184 126.596C326.536 126.164 328.672 125.54 330.592 124.724C332.56 123.908 334.192 122.948 335.488 121.844C336.784 120.692 337.624 119.444 338.008 118.1L338.584 103.7H316.768C314.848 103.7 313.048 103.844 311.368 104.132C309.688 104.372 308.2 104.9 306.904 105.716C305.656 106.532 304.672 107.708 303.952 109.244C303.232 110.78 302.872 112.796 302.872 115.292C302.872 117.836 303.256 119.9 304.024 121.484C304.84 123.02 305.92 124.22 307.264 125.084C308.656 125.9 310.192 126.476 311.872 126.812C313.6 127.1 315.376 127.244 317.2 127.244Z" fill="#1E1E1E"/>
</svg>
